# xmcd CD database file
#
# Track frame offsets:
#	150
#	20520
#	41367
#	63470
#	83840
#	104212
#	135837
#
# Disc length: 4440 seconds
#
# Revision: 0
# Processed by: cddbd v1.5PL3 Copyright (c) Steve Scherf et al.
# Submitted via: CDex 1.51
#
DISCID=55115607
DTITLE=タッキー&翼 - 夢物語
DYEAR=2003
DGENRE=JPop
TTITLE0=夢物語 - タッキー&翼
TTITLE1=風の詩 - 今井翼
TTITLE2=IT'S ONLY DREAM - 滝沢秀明
TTITLE3=夢物語 〜TAKIZAWA PART VERSION〜
TTITLE4=夢物語 〜TSUBASA PART VERSION〜
TTITLE5=夢物語 〜karaoke〜
TTITLE6=データ
EXTD=YEAR: 2003
EXTT0=
EXTT1=
EXTT2=
EXTT3=
EXTT4=
EXTT5=
EXTT6=
PLAYORDER=
